<mxfile host="app.diagrams.net" agent="Mozilla/5.0 (Windows NT 10.0; Win64; x64) AppleWebKit/537.36 (KHTML, like Gecko) Chrome/140.0.0.0 Safari/537.36" version="28.2.0">
  <diagram name="Página-1" id="zrvnVyWwylzqx-FyT3Na">
    <mxGraphModel grid="1" page="1" gridSize="10" guides="1" tooltips="1" connect="1" arrows="1" fold="1" pageScale="1" pageWidth="827" pageHeight="1169" math="0" shadow="0">
      <root>
        <mxCell id="0" />
        <mxCell id="1" parent="0" />
        <mxCell id="JacznItjdCvIMvOFdENv-1" value="Administrador" style="swimlane;whiteSpace=wrap;html=1;" vertex="1" parent="1">
          <mxGeometry x="20" y="-540" width="410" height="790" as="geometry" />
        </mxCell>
        <mxCell id="JacznItjdCvIMvOFdENv-5" style="edgeStyle=orthogonalEdgeStyle;rounded=0;orthogonalLoop=1;jettySize=auto;html=1;" edge="1" parent="JacznItjdCvIMvOFdENv-1" source="JacznItjdCvIMvOFdENv-3" target="JacznItjdCvIMvOFdENv-4">
          <mxGeometry relative="1" as="geometry" />
        </mxCell>
        <mxCell id="JacznItjdCvIMvOFdENv-3" value="" style="ellipse;whiteSpace=wrap;html=1;aspect=fixed;" vertex="1" parent="JacznItjdCvIMvOFdENv-1">
          <mxGeometry x="105" y="60" width="30" height="30" as="geometry" />
        </mxCell>
        <mxCell id="JacznItjdCvIMvOFdENv-4" value="Iniciar sesión" style="rounded=1;whiteSpace=wrap;html=1;" vertex="1" parent="JacznItjdCvIMvOFdENv-1">
          <mxGeometry x="60" y="130" width="120" height="60" as="geometry" />
        </mxCell>
        <mxCell id="JacznItjdCvIMvOFdENv-23" style="edgeStyle=orthogonalEdgeStyle;rounded=0;orthogonalLoop=1;jettySize=auto;html=1;entryX=0.5;entryY=0;entryDx=0;entryDy=0;" edge="1" parent="JacznItjdCvIMvOFdENv-1" source="JacznItjdCvIMvOFdENv-10" target="JacznItjdCvIMvOFdENv-22">
          <mxGeometry relative="1" as="geometry" />
        </mxCell>
        <mxCell id="JacznItjdCvIMvOFdENv-10" value="Mostrar panel de administrador" style="rounded=1;whiteSpace=wrap;html=1;" vertex="1" parent="JacznItjdCvIMvOFdENv-1">
          <mxGeometry x="20" y="280" width="120" height="60" as="geometry" />
        </mxCell>
        <mxCell id="JacznItjdCvIMvOFdENv-25" style="edgeStyle=orthogonalEdgeStyle;rounded=0;orthogonalLoop=1;jettySize=auto;html=1;" edge="1" parent="JacznItjdCvIMvOFdENv-1" source="JacznItjdCvIMvOFdENv-22" target="JacznItjdCvIMvOFdENv-24">
          <mxGeometry relative="1" as="geometry" />
        </mxCell>
        <mxCell id="JacznItjdCvIMvOFdENv-26" value="no" style="edgeLabel;html=1;align=center;verticalAlign=middle;resizable=0;points=[];" connectable="0" vertex="1" parent="JacznItjdCvIMvOFdENv-25">
          <mxGeometry x="0.0583" y="1" relative="1" as="geometry">
            <mxPoint as="offset" />
          </mxGeometry>
        </mxCell>
        <mxCell id="JacznItjdCvIMvOFdENv-22" value="¿Desea agregar producto?&amp;nbsp;" style="rhombus;whiteSpace=wrap;html=1;" vertex="1" parent="JacznItjdCvIMvOFdENv-1">
          <mxGeometry x="10" y="400" width="140" height="80" as="geometry" />
        </mxCell>
        <mxCell id="JacznItjdCvIMvOFdENv-30" style="edgeStyle=orthogonalEdgeStyle;rounded=0;orthogonalLoop=1;jettySize=auto;html=1;entryX=0.5;entryY=0;entryDx=0;entryDy=0;" edge="1" parent="JacznItjdCvIMvOFdENv-1" source="JacznItjdCvIMvOFdENv-24" target="JacznItjdCvIMvOFdENv-27">
          <mxGeometry relative="1" as="geometry" />
        </mxCell>
        <mxCell id="JacznItjdCvIMvOFdENv-31" value="no" style="edgeLabel;html=1;align=center;verticalAlign=middle;resizable=0;points=[];" connectable="0" vertex="1" parent="JacznItjdCvIMvOFdENv-30">
          <mxGeometry x="-0.1533" relative="1" as="geometry">
            <mxPoint as="offset" />
          </mxGeometry>
        </mxCell>
        <mxCell id="JacznItjdCvIMvOFdENv-52" style="edgeStyle=orthogonalEdgeStyle;rounded=0;orthogonalLoop=1;jettySize=auto;html=1;entryX=0.5;entryY=0;entryDx=0;entryDy=0;" edge="1" parent="JacznItjdCvIMvOFdENv-1" source="JacznItjdCvIMvOFdENv-24" target="JacznItjdCvIMvOFdENv-51">
          <mxGeometry relative="1" as="geometry" />
        </mxCell>
        <mxCell id="JacznItjdCvIMvOFdENv-53" value="si" style="edgeLabel;html=1;align=center;verticalAlign=middle;resizable=0;points=[];" connectable="0" vertex="1" parent="JacznItjdCvIMvOFdENv-52">
          <mxGeometry x="0.195" relative="1" as="geometry">
            <mxPoint as="offset" />
          </mxGeometry>
        </mxCell>
        <mxCell id="JacznItjdCvIMvOFdENv-24" value="¿Desea eliminar producto?&amp;nbsp;" style="rhombus;whiteSpace=wrap;html=1;" vertex="1" parent="JacznItjdCvIMvOFdENv-1">
          <mxGeometry x="10" y="510" width="140" height="80" as="geometry" />
        </mxCell>
        <mxCell id="JacznItjdCvIMvOFdENv-27" value="" style="ellipse;whiteSpace=wrap;html=1;aspect=fixed;" vertex="1" parent="JacznItjdCvIMvOFdENv-1">
          <mxGeometry x="65" y="660" width="30" height="30" as="geometry" />
        </mxCell>
        <mxCell id="JacznItjdCvIMvOFdENv-28" value="" style="ellipse;whiteSpace=wrap;html=1;aspect=fixed;" vertex="1" parent="JacznItjdCvIMvOFdENv-1">
          <mxGeometry x="70" y="665" width="20" height="20" as="geometry" />
        </mxCell>
        <mxCell id="JacznItjdCvIMvOFdENv-35" value="Rellenar formulario de nuevo producto con foto" style="rounded=1;whiteSpace=wrap;html=1;" vertex="1" parent="JacznItjdCvIMvOFdENv-1">
          <mxGeometry x="280" y="500" width="120" height="60" as="geometry" />
        </mxCell>
        <mxCell id="JacznItjdCvIMvOFdENv-50" style="edgeStyle=orthogonalEdgeStyle;rounded=0;orthogonalLoop=1;jettySize=auto;html=1;entryX=1;entryY=0.5;entryDx=0;entryDy=0;" edge="1" parent="JacznItjdCvIMvOFdENv-1" source="JacznItjdCvIMvOFdENv-46" target="JacznItjdCvIMvOFdENv-27">
          <mxGeometry relative="1" as="geometry" />
        </mxCell>
        <mxCell id="JacznItjdCvIMvOFdENv-46" value="Mostrar producto nuevo" style="rounded=1;whiteSpace=wrap;html=1;" vertex="1" parent="JacznItjdCvIMvOFdENv-1">
          <mxGeometry x="250" y="705" width="120" height="60" as="geometry" />
        </mxCell>
        <mxCell id="JacznItjdCvIMvOFdENv-51" value="Seleccionar producto a eliminar" style="rounded=1;whiteSpace=wrap;html=1;" vertex="1" parent="JacznItjdCvIMvOFdENv-1">
          <mxGeometry x="190" y="575" width="100" height="50" as="geometry" />
        </mxCell>
        <mxCell id="JacznItjdCvIMvOFdENv-2" value="Sitio web" style="swimlane;whiteSpace=wrap;html=1;" vertex="1" parent="1">
          <mxGeometry x="430" y="-540" width="380" height="790" as="geometry" />
        </mxCell>
        <mxCell id="JacznItjdCvIMvOFdENv-15" style="edgeStyle=orthogonalEdgeStyle;rounded=0;orthogonalLoop=1;jettySize=auto;html=1;entryX=0.5;entryY=1;entryDx=0;entryDy=0;exitX=0;exitY=0;exitDx=0;exitDy=0;" edge="1" parent="JacznItjdCvIMvOFdENv-2" source="JacznItjdCvIMvOFdENv-6" target="JacznItjdCvIMvOFdENv-14">
          <mxGeometry relative="1" as="geometry" />
        </mxCell>
        <mxCell id="JacznItjdCvIMvOFdENv-17" value="no" style="edgeLabel;html=1;align=center;verticalAlign=middle;resizable=0;points=[];" connectable="0" vertex="1" parent="JacznItjdCvIMvOFdENv-15">
          <mxGeometry x="-0.5484" relative="1" as="geometry">
            <mxPoint as="offset" />
          </mxGeometry>
        </mxCell>
        <mxCell id="JacznItjdCvIMvOFdENv-6" value="¿Email tiene rol de administrador?" style="rhombus;whiteSpace=wrap;html=1;" vertex="1" parent="JacznItjdCvIMvOFdENv-2">
          <mxGeometry x="210" y="120" width="140" height="80" as="geometry" />
        </mxCell>
        <mxCell id="JacznItjdCvIMvOFdENv-13" value="" style="ellipse;whiteSpace=wrap;html=1;aspect=fixed;" vertex="1" parent="JacznItjdCvIMvOFdENv-2">
          <mxGeometry x="132.5" y="60" width="30" height="30" as="geometry" />
        </mxCell>
        <mxCell id="JacznItjdCvIMvOFdENv-14" value="" style="ellipse;whiteSpace=wrap;html=1;aspect=fixed;" vertex="1" parent="JacznItjdCvIMvOFdENv-2">
          <mxGeometry x="137.5" y="65" width="20" height="20" as="geometry" />
        </mxCell>
        <mxCell id="JacznItjdCvIMvOFdENv-32" value="¿El producto existe?" style="rhombus;whiteSpace=wrap;html=1;" vertex="1" parent="JacznItjdCvIMvOFdENv-2">
          <mxGeometry x="210" y="400" width="140" height="80" as="geometry" />
        </mxCell>
        <mxCell id="JacznItjdCvIMvOFdENv-47" style="edgeStyle=orthogonalEdgeStyle;rounded=0;orthogonalLoop=1;jettySize=auto;html=1;entryX=0.5;entryY=0;entryDx=0;entryDy=0;" edge="1" parent="JacznItjdCvIMvOFdENv-2" source="JacznItjdCvIMvOFdENv-43" target="JacznItjdCvIMvOFdENv-45">
          <mxGeometry relative="1" as="geometry" />
        </mxCell>
        <mxCell id="JacznItjdCvIMvOFdENv-43" value="¿Datos son validos?" style="rhombus;whiteSpace=wrap;html=1;" vertex="1" parent="JacznItjdCvIMvOFdENv-2">
          <mxGeometry x="210" y="490" width="140" height="80" as="geometry" />
        </mxCell>
        <mxCell id="JacznItjdCvIMvOFdENv-45" value="Mensaje producto agregado" style="rounded=1;whiteSpace=wrap;html=1;" vertex="1" parent="JacznItjdCvIMvOFdENv-2">
          <mxGeometry x="220" y="705" width="120" height="60" as="geometry" />
        </mxCell>
        <mxCell id="JacznItjdCvIMvOFdENv-58" value="Producto eliminado" style="rounded=1;whiteSpace=wrap;html=1;" vertex="1" parent="JacznItjdCvIMvOFdENv-2">
          <mxGeometry x="42.5" y="570" width="120" height="60" as="geometry" />
        </mxCell>
        <mxCell id="JacznItjdCvIMvOFdENv-7" style="edgeStyle=orthogonalEdgeStyle;rounded=0;orthogonalLoop=1;jettySize=auto;html=1;" edge="1" parent="1" source="JacznItjdCvIMvOFdENv-4" target="JacznItjdCvIMvOFdENv-6">
          <mxGeometry relative="1" as="geometry" />
        </mxCell>
        <mxCell id="JacznItjdCvIMvOFdENv-11" style="edgeStyle=orthogonalEdgeStyle;rounded=0;orthogonalLoop=1;jettySize=auto;html=1;entryX=1;entryY=0.5;entryDx=0;entryDy=0;exitX=0.5;exitY=1;exitDx=0;exitDy=0;" edge="1" parent="1" source="JacznItjdCvIMvOFdENv-6" target="JacznItjdCvIMvOFdENv-10">
          <mxGeometry relative="1" as="geometry" />
        </mxCell>
        <mxCell id="JacznItjdCvIMvOFdENv-12" value="si" style="edgeLabel;html=1;align=center;verticalAlign=middle;resizable=0;points=[];" connectable="0" vertex="1" parent="JacznItjdCvIMvOFdENv-11">
          <mxGeometry x="-0.0222" y="-4" relative="1" as="geometry">
            <mxPoint as="offset" />
          </mxGeometry>
        </mxCell>
        <mxCell id="JacznItjdCvIMvOFdENv-33" style="edgeStyle=orthogonalEdgeStyle;rounded=0;orthogonalLoop=1;jettySize=auto;html=1;" edge="1" parent="1" source="JacznItjdCvIMvOFdENv-22" target="JacznItjdCvIMvOFdENv-32">
          <mxGeometry relative="1" as="geometry" />
        </mxCell>
        <mxCell id="JacznItjdCvIMvOFdENv-36" style="edgeStyle=orthogonalEdgeStyle;rounded=0;orthogonalLoop=1;jettySize=auto;html=1;entryX=0.5;entryY=0;entryDx=0;entryDy=0;exitX=0;exitY=1;exitDx=0;exitDy=0;" edge="1" parent="1" source="JacznItjdCvIMvOFdENv-32" target="JacznItjdCvIMvOFdENv-35">
          <mxGeometry relative="1" as="geometry" />
        </mxCell>
        <mxCell id="JacznItjdCvIMvOFdENv-37" value="si" style="edgeLabel;html=1;align=center;verticalAlign=middle;resizable=0;points=[];" connectable="0" vertex="1" parent="JacznItjdCvIMvOFdENv-36">
          <mxGeometry x="0.4051" relative="1" as="geometry">
            <mxPoint as="offset" />
          </mxGeometry>
        </mxCell>
        <mxCell id="JacznItjdCvIMvOFdENv-40" style="edgeStyle=orthogonalEdgeStyle;rounded=0;orthogonalLoop=1;jettySize=auto;html=1;entryX=1;entryY=0;entryDx=0;entryDy=0;exitX=0;exitY=0;exitDx=0;exitDy=0;" edge="1" parent="1" source="JacznItjdCvIMvOFdENv-32" target="JacznItjdCvIMvOFdENv-22">
          <mxGeometry relative="1" as="geometry" />
        </mxCell>
        <mxCell id="JacznItjdCvIMvOFdENv-41" value="no" style="edgeLabel;html=1;align=center;verticalAlign=middle;resizable=0;points=[];" connectable="0" vertex="1" parent="JacznItjdCvIMvOFdENv-40">
          <mxGeometry x="-0.175" y="-2" relative="1" as="geometry">
            <mxPoint as="offset" />
          </mxGeometry>
        </mxCell>
        <mxCell id="JacznItjdCvIMvOFdENv-44" style="edgeStyle=orthogonalEdgeStyle;rounded=0;orthogonalLoop=1;jettySize=auto;html=1;entryX=0;entryY=0.5;entryDx=0;entryDy=0;" edge="1" parent="1" source="JacznItjdCvIMvOFdENv-35" target="JacznItjdCvIMvOFdENv-43">
          <mxGeometry relative="1" as="geometry" />
        </mxCell>
        <mxCell id="JacznItjdCvIMvOFdENv-48" style="edgeStyle=orthogonalEdgeStyle;rounded=0;orthogonalLoop=1;jettySize=auto;html=1;entryX=1;entryY=0.5;entryDx=0;entryDy=0;" edge="1" parent="1" source="JacznItjdCvIMvOFdENv-45" target="JacznItjdCvIMvOFdENv-46">
          <mxGeometry relative="1" as="geometry" />
        </mxCell>
        <mxCell id="JacznItjdCvIMvOFdENv-59" style="edgeStyle=orthogonalEdgeStyle;rounded=0;orthogonalLoop=1;jettySize=auto;html=1;" edge="1" parent="1" source="JacznItjdCvIMvOFdENv-51" target="JacznItjdCvIMvOFdENv-58">
          <mxGeometry relative="1" as="geometry" />
        </mxCell>
        <mxCell id="JacznItjdCvIMvOFdENv-61" style="edgeStyle=orthogonalEdgeStyle;rounded=0;orthogonalLoop=1;jettySize=auto;html=1;entryX=1;entryY=0.5;entryDx=0;entryDy=0;" edge="1" parent="1" source="JacznItjdCvIMvOFdENv-58" target="JacznItjdCvIMvOFdENv-28">
          <mxGeometry relative="1" as="geometry">
            <Array as="points">
              <mxPoint x="532" y="135" />
            </Array>
          </mxGeometry>
        </mxCell>
      </root>
    </mxGraphModel>
  </diagram>
</mxfile>
